<svg width="450" height="450" viewBox="0 0 450 450" fill="none" xmlns="http://www.w3.org/2000/svg">
<rect width="450" height="450" rx="80" fill="black"/>
<path d="M237.519 312.087C232.77 312.887 227.901 313.312 222.93 313.312C174.533 313.312 135.175 273.937 135.175 225.557C135.175 177.16 174.55 137.802 222.93 137.802C271.328 137.802 310.686 177.177 310.686 225.557C310.686 242.359 305.936 258.055 297.714 271.418L306.208 280.662L314.584 289.769C327.368 271.571 334.91 249.441 334.91 225.574C334.91 163.83 284.674 113.611 222.947 113.611C161.203 113.611 110.984 163.847 110.984 225.574C110.984 287.318 161.22 337.554 222.947 337.554C230.557 337.554 237.996 336.788 245.197 335.324L241.366 323.714L237.519 312.087Z" fill="white"/>
<path d="M347.762 346.785L321.784 318.51L305.646 300.958L297.441 292.038L289.168 283.033L216.699 204.146L251.223 308.636L255.019 320.144L258.815 331.618L265.982 353.322L278 389.718L278.051 389.837C304.88 381.462 328.934 366.805 348.494 347.585L347.762 346.785Z" fill="white"/>
<path d="M225.009 52C129.61 52 52 129.61 52 224.991C52 254.442 59.4222 282.19 72.4451 306.482C101.623 360.889 159.06 398 224.992 398C238.423 398 251.48 396.4 264.043 393.506C264.179 393.472 264.298 393.438 264.435 393.421L252.365 356.872C243.53 358.71 234.371 359.68 224.992 359.68C150.736 359.68 90.3196 299.264 90.3196 225.009C90.3196 150.753 150.736 90.3366 224.992 90.3366C299.247 90.3366 359.663 150.753 359.663 225.009C359.663 256.161 348.99 284.863 331.166 307.708L357.365 336.222C382.696 306.125 398 267.329 398 225.009C398 129.61 320.407 52 225.009 52Z" fill="white"/>
<path d="M264.023 393.451C264.161 393.417 264.281 393.4 264.418 393.365C264.281 393.4 264.161 393.434 264.023 393.451Z" fill="white"/>
</svg>
