<svg width="346" height="346" viewBox="0 0 346 346" fill="none" xmlns="http://www.w3.org/2000/svg">
<rect width="346" height="346" rx="171" fill="white"/>
<path d="M185.519 260.089C180.77 260.889 175.901 261.314 170.93 261.314C122.533 261.314 83.1746 221.939 83.1746 173.559C83.1746 125.162 122.55 85.8035 170.93 85.8035C219.328 85.8035 258.686 125.179 258.686 173.559C258.686 190.361 253.936 206.057 245.714 219.42L254.208 228.664L262.584 237.771C275.368 219.573 282.91 197.443 282.91 173.576C282.91 111.832 232.674 61.6133 170.947 61.6133C109.203 61.6133 58.9844 111.849 58.9844 173.576C58.9844 235.32 109.22 285.556 170.947 285.556C178.557 285.556 185.996 284.79 193.197 283.326L189.366 271.716L185.519 260.089Z" fill="black"/>
<path d="M295.758 294.787L269.781 266.511L253.642 248.96L245.437 240.04L237.164 231.035L164.695 152.148L199.219 256.638L203.015 268.146L206.811 279.619L213.978 301.324L225.996 337.72L226.048 337.839C252.876 329.464 276.93 314.807 296.49 295.587L295.758 294.787Z" fill="black"/>
<path d="M173.009 0C77.6096 0 0 77.6096 0 172.991C0 202.442 7.42221 230.19 20.4451 254.482C49.6231 308.889 107.06 346 172.992 346C186.423 346 199.48 344.4 212.043 341.506C212.179 341.472 212.298 341.438 212.435 341.421L200.365 304.872C191.53 306.71 182.371 307.68 172.992 307.68C98.7356 307.68 38.3196 247.264 38.3196 173.009C38.3196 98.7526 98.7356 38.3366 172.992 38.3366C247.247 38.3366 307.663 98.7526 307.663 173.009C307.663 204.161 296.99 232.863 279.166 255.708L305.365 284.222C330.696 254.125 346 215.329 346 173.009C346 77.6095 268.407 0 173.009 0Z" fill="black"/>
<path d="M212.023 341.453C212.161 341.419 212.281 341.402 212.418 341.367C212.281 341.402 212.161 341.436 212.023 341.453Z" fill="black"/>
</svg>
